<svg xmlns="http://www.w3.org/2000/svg" width="300" height="300" viewBox="0 0 300 300" version="1.1">
	<path d="M 138.346 97.750 C 138.676 99.813, 139.240 102.963, 139.598 104.750 L 140.250 108 134.125 108 L 128 108 128 102 C 128 98.505, 127.565 96, 126.958 96 C 124.801 96, 110.305 99.159, 105.500 100.677 C 98.403 102.918, 92 105.895, 92 106.953 C 92 107.450, 89.412 108.164, 86.250 108.541 C 78.854 109.421, 74.837 111.313, 72.706 114.920 C 67.773 123.272, 74.053 131, 85.773 131 L 90.744 131 91.369 134.909 C 92.558 142.345, 100.170 146.032, 107.020 142.490 C 110.528 140.676, 112 138.186, 112 134.066 L 112 131 141.750 130.930 C 168.260 130.867, 171.090 130.709, 167.738 129.478 C 165.668 128.718, 162.981 127.400, 161.765 126.548 C 159.645 125.063, 159.759 125, 164.586 125 C 170.753 125, 174.102 123.033, 172.081 120.597 C 170.943 119.226, 169.323 119.078, 161.512 119.627 C 155.064 120.080, 152.076 119.933, 151.585 119.137 C 151.147 118.428, 151.657 118, 152.941 118 C 154.270 118, 155 117.351, 155 116.169 C 155 114.331, 152.228 112.434, 148.500 111.721 C 142.970 110.663, 160.292 109.878, 182.682 110.171 C 199.782 110.394, 207.324 110.179, 206.182 109.500 C 205.208 108.921, 191.244 108.290, 173 108 C 155.675 107.725, 141.680 107.275, 141.901 107 C 142.350 106.440, 141.129 97.500, 140.313 95.372 C 139.172 92.401, 137.761 94.106, 138.346 97.750 M 196.500 121.798 C 191.403 125.053, 187.474 131, 190.420 131 C 191.179 131, 192.066 132.541, 192.433 134.496 C 192.794 136.419, 194.155 139.231, 195.458 140.746 C 197.453 143.066, 198.612 143.500, 202.808 143.500 C 208.850 143.500, 211.537 141.437, 213.108 135.591 C 213.712 133.341, 214.628 131.238, 215.142 130.917 C 216.496 130.073, 214.677 125.932, 211.761 123.221 C 208.261 119.967, 200.500 119.243, 196.500 121.798 M 198.443 130.447 C 197.064 132.552, 197.027 133.285, 198.179 135.697 C 199.780 139.046, 203.143 139.792, 206.558 137.554 C 209.375 135.708, 209.656 133.382, 207.443 130.223 C 205.267 127.116, 200.548 127.234, 198.443 130.447 M 200.200 130.200 C 197.348 133.052, 199.863 138.558, 203.681 137.823 C 206.173 137.343, 207.726 132.580, 206.050 130.560 C 204.506 128.700, 201.862 128.538, 200.200 130.200 M 96 133.133 C 96 137.014, 101.498 140.243, 104.671 138.225 C 106.359 137.151, 107.374 132.349, 106.081 131.550 C 105.425 131.145, 105 131.794, 105 133.200 C 105 134.476, 104.120 136.069, 103.044 136.741 C 101.386 137.776, 100.863 137.642, 99.619 135.866 C 98.812 134.714, 98.390 133.147, 98.682 132.385 C 98.999 131.559, 98.565 131, 97.607 131 C 96.633 131, 96 131.841, 96 133.133 M 201.216 131.845 C 199.473 132.951, 200.782 136, 203 136 C 205.198 136, 206.244 133.644, 204.722 132.122 C 203.397 130.797, 202.926 130.760, 201.216 131.845 M 100.229 133.188 C 100.847 135.042, 103 135.349, 103 133.583 C 103 132.713, 102.287 132, 101.417 132 C 100.546 132, 100.011 132.534, 100.229 133.188 M 38 191.545 C 38 203.662, 38.087 204.178, 40.552 206.643 C 42.975 209.066, 43.562 209.177, 52.133 208.848 C 64.043 208.389, 64 208.450, 64 191.809 L 64 179 60.532 179 L 57.063 179 56.782 190.750 L 56.500 202.500 52.114 202.814 C 49.702 202.987, 47.315 202.715, 46.809 202.209 C 46.304 201.704, 45.840 196.275, 45.778 190.145 L 45.665 179 41.833 179 L 38 179 38 191.545 M 74 193.440 L 74 208 77.500 208 C 80.765 208, 81.006 207.782, 81.083 204.750 C 81.205 199.989, 81.596 197.071, 82.190 196.477 C 83.494 195.172, 86.063 197.590, 88.667 202.573 C 91.329 207.667, 91.727 207.995, 95.250 207.998 C 97.313 207.999, 99 207.783, 99 207.518 C 99 207.253, 97.351 203.966, 95.336 200.215 L 91.672 193.395 95.336 187.144 C 97.351 183.706, 99 180.440, 99 179.886 C 99 179.332, 97.313 179.019, 95.250 179.190 C 91.854 179.471, 91.231 180.002, 88.649 184.820 C 84.142 193.231, 80.727 192.855, 81.202 184 L 81.444 179.500 77.722 179.190 L 74 178.879 74 193.440 M 107 193.500 L 107 208 110.500 208 C 113.917 208, 114 207.905, 114 204 C 114 200.130, 114.109 200, 117.348 200 C 120.280 200, 120.918 200.491, 122.478 203.952 C 124.330 208.058, 125.692 208.810, 130.137 208.180 L 132.774 207.806 130.512 203.824 L 128.250 199.841 130.625 197.466 C 132.559 195.532, 133 194.052, 133 189.500 C 133 184.897, 132.566 183.475, 130.545 181.455 C 128.250 179.159, 127.409 179, 117.545 179 L 107 179 107 193.500 M 166.032 191.750 C 166.074 208.659, 165.951 208.500, 179 208.500 C 192.049 208.500, 191.926 208.659, 191.968 191.750 L 192 179 188.500 179 L 185 179 184.985 189.750 C 184.976 195.662, 184.595 201.090, 184.138 201.811 C 183.588 202.679, 181.649 203.017, 178.403 202.811 L 173.500 202.500 173.218 190.750 L 172.937 179 169.468 179 L 166 179 166.032 191.750 M 203.635 181.073 C 201.078 183.084, 201.001 183.462, 201.032 193.823 C 201.053 201.102, 201.486 205.056, 202.390 206.247 C 204.269 208.722, 208.672 209.347, 218.476 208.530 L 227 207.820 227 199.910 L 227 192 220.500 192 C 214.233 192, 214 192.090, 214 194.500 C 214 196.500, 214.500 197, 216.500 197 C 218.611 197, 219 197.467, 219 200 C 219 202.932, 218.887 203, 214.019 203 C 208.139 203, 207.717 202.201, 208.197 191.969 L 208.500 185.500 216.250 185.208 L 224 184.916 224 181.958 L 224 179 215.135 179 C 207.680 179, 205.850 179.330, 203.635 181.073 M 237 181 C 235.247 182.753, 235 184.333, 235 193.809 C 235 208.508, 234.993 208.500, 248.008 208.500 C 261.529 208.500, 262 207.991, 262 193.389 C 262 179.482, 261.548 179, 248.500 179 C 240.333 179, 238.719 179.281, 237 181 M 246.250 184.807 L 242 185.115 242 192.476 C 242 202.711, 242.182 203, 248.607 203 L 254 203 254 194.117 C 254 184.169, 254.061 184.242, 246.250 184.807 M 114.193 189.250 L 114.500 193.500 119.500 193.500 L 124.500 193.500 124.807 189.250 L 125.115 185 119.500 185 L 113.885 185 114.193 189.250 M 140.184 193.750 C 140.497 196.471, 140.586 196.503, 148.623 196.788 C 155.728 197.041, 156.805 196.853, 157.211 195.288 C 158.187 191.523, 157.107 191, 148.350 191 L 139.867 191 140.184 193.750" stroke="none" fill="black" fill-rule="evenodd"/>
</svg>